<svg id="Layer_1" data-name="Layer 1" xmlns="http://www.w3.org/2000/svg" viewBox="0 0 140.54 61.03"><defs><style>.cls-1{fill:#fff;}</style></defs><path class="cls-1" d="M17.87,61l-.41-.75C17.3,60,2.13,32.44,1.1,30.76L1,30.52l.15-.25C2.13,28.59,17.3,1,17.46.75L17.87,0l.41.75c.16.28,15.33,27.84,16.36,29.52l.15.25-.15.24c-1,1.68-16.2,29.24-16.36,29.52ZM2.05,30.52c1.69,2.91,13.41,24.17,15.82,28.55C20.28,54.69,32,33.43,33.68,30.52,32,27.61,20.28,6.34,17.87,2,15.46,6.34,3.74,27.6,2.05,30.52Z"/><path class="cls-1" d="M19.56,30.52l-1.69,5.6-1.69-5.6H12.42c.35,1,5.45,17.22,5.45,17.22S23,31.51,23.32,30.52Z"/><path class="cls-1" d="M20.86,19.46c-.19-.19-3-3.2-3-3.2s-2.8,3-3,3.2l1.61,2.32-.27,2h3.3l-.27-2Z"/><polygon class="cls-1" points="26.77 28.27 8.97 28.27 10.21 26.02 25.52 26.02 26.77 28.27"/><path class="cls-1" d="M50,28.25l.57-4.1a8.55,8.55,0,0,0,4.66,1.71c1,0,1.31-.46,1.31-.85s-.24-.84-1.55-1.27l-.88-.29c-2.62-.85-3.79-2.65-3.79-4.81,0-2.81,2.17-4.93,5.54-4.93a11.79,11.79,0,0,1,4.56,1l-.57,4a10.27,10.27,0,0,0-4.1-1.23c-.83,0-1.13.39-1.13.83s.32.83,1.44,1.18l.88.29c3,1,4,2.91,4,4.84,0,2.45-1.62,5.06-5.65,5.06A10.83,10.83,0,0,1,50,28.25Z"/><path class="cls-1" d="M81.28,14.06V29.39H76.72V23.78H72.21v5.61H67.66V14.06h4.55V19.4h4.51V14.06Z"/><path class="cls-1" d="M97.33,26.85H92.75l-.7,2.54H87.19l5.15-15.33h5.4l5.15,15.33H98ZM96.3,23l-1.25-4.6L93.78,23Z"/><path class="cls-1" d="M116,29.39l-2.67-5.74v5.74H108.8V14.06h5.78c3.83,0,5.83,2.08,5.83,4.86a4.51,4.51,0,0,1-2.68,4.23l3.53,6.24ZM113.84,21c1.31,0,2-.68,2-1.67s-.7-1.66-2-1.66h-.53V21Z"/><path class="cls-1" d="M139.59,19.69c0,3.28-2.54,5.67-6.05,5.67h-1.18v4h-4.55V14.06h5.73C137.05,14.06,139.59,16.42,139.59,19.69Zm-4.56,0a1.84,1.84,0,0,0-2-1.82h-.66v3.68H133A1.86,1.86,0,0,0,135,19.69Z"/><path class="cls-1" d="M50.55,36.45h2.7a3.83,3.83,0,1,1,0,7.66h-2.7ZM53.15,42a1.71,1.71,0,1,0,0-3.42h-.33V42Z"/><path class="cls-1" d="M66.7,42.13l-.27,2H61.69V36.45h4.64l.27,2H63.93v.82h2.15v2H63.93v.89Z"/><path class="cls-1" d="M71,43.55l.28-2a4.33,4.33,0,0,0,2.33.85c.52,0,.66-.23.66-.43s-.12-.41-.78-.63l-.44-.14a2.44,2.44,0,0,1-1.89-2.41A2.51,2.51,0,0,1,74,36.28a5.92,5.92,0,0,1,2.28.51l-.29,2a5.2,5.2,0,0,0-2-.61c-.41,0-.56.2-.56.42s.16.41.72.59l.44.14a2.51,2.51,0,0,1-.81,4.95A5.45,5.45,0,0,1,71,43.55Z"/><path class="cls-1" d="M83.42,44.11H81.14V36.45h2.28Z"/><path class="cls-1" d="M94.74,39.35v4.14a5.19,5.19,0,0,1-2.74.8,4,4,0,0,1-4.09-4,4.06,4.06,0,0,1,4.19-4,4.87,4.87,0,0,1,2.19.5L94,38.89a4.06,4.06,0,0,0-1.83-.48,1.86,1.86,0,0,0-2,1.87,1.83,1.83,0,0,0,1.93,1.87,2.49,2.49,0,0,0,.61-.08v-.85H91.53l.27-1.87Z"/><path class="cls-1" d="M106.6,36.45v7.66h-2.12l-2.77-3.77v3.77H99.47V36.45h2.13l2.75,3.73V36.45Z"/><path class="cls-1" d="M114.75,40.28a4.06,4.06,0,0,1,4.22-4,4.84,4.84,0,0,1,1.85.36l-.32,2.22a3.29,3.29,0,0,0-1.49-.38,1.8,1.8,0,1,0,0,3.6,3.27,3.27,0,0,0,1.59-.45l.32,2.22a4.89,4.89,0,0,1-2,.44A4,4,0,0,1,114.75,40.28Z"/><path class="cls-1" d="M124.37,40.28a4.12,4.12,0,1,1,4.11,4A4,4,0,0,1,124.37,40.28Zm5.91,0a1.8,1.8,0,1,0-1.8,1.83A1.78,1.78,0,0,0,130.28,40.28Z"/><path class="cls-1" d="M133.33,43a1.32,1.32,0,1,1,1.32,1.25A1.27,1.27,0,0,1,133.33,43Z"/></svg>